HIERARCHY
ROOT Hips
{
	OFFSET 0.000000 0.000000 0.000000 
	CHANNELS 6 Xposition Yposition Zposition Yrotation Zrotation Xrotation 
	JOINT Lumbar
	{
		OFFSET 0.000000 0.000000 0.000000 
		CHANNELS 3 Zrotation Xrotation Yrotation
		JOINT Neck
		{
			OFFSET 0.000000 0.445665 0.000000 
			CHANNELS 3 Zrotation Xrotation Yrotation
			End Site
			{
				OFFSET 0.000000 0.227535 0.000000 
			}
		}
		JOINT RightShoulder
		{
			OFFSET 0.019635 0.377685 0.194865 
			CHANNELS 3 Zrotation Xrotation Yrotation
			JOINT RightElbow
			{
				OFFSET 0.000000 -0.243375 0.000000 
				CHANNELS 2 Zrotation Yrotation
				JOINT RightWrist
				{
					OFFSET 0.000000 -0.264825 0.000000 
					CHANNELS 2 Zrotation Xrotation
					End Site
					{
						OFFSET 0.006600 -0.176220 0.000990 
					}
				}
			}
		}
		JOINT LeftShoulder
		{
			OFFSET 0.019635 0.377685 -0.194865 
			CHANNELS 3 Zrotation Xrotation Yrotation
			JOINT LeftElbow
			{
				OFFSET 0.000000 -0.243375 0.000000 
				CHANNELS 2 Zrotation Yrotation
				JOINT LeftWrist
				{
					OFFSET 0.000000 -0.264825 0.000000 
					CHANNELS 2 Zrotation Xrotation
					End Site
					{
						OFFSET 0.006600 -0.176220 -0.000990 
					}
				}
			}
		}
	}
	JOINT RightHip
	{
		OFFSET 0.052140 -0.069960 0.075570 
		CHANNELS 3 Zrotation Xrotation Yrotation
		JOINT RightKnee
		{
			OFFSET 0.000000 -0.402270 0.000000 
			CHANNELS 1 Zrotation
			JOINT RightAnkle
			{
				OFFSET 0.000000 -0.404085 0.000000 
				CHANNELS 3 Zrotation Xrotation Yrotation
				End Site
				{
					OFFSET 0.204105 -0.089430 0.008415 
				}
			}
		}
	}
	JOINT LeftHip
	{
		OFFSET 0.052140 -0.069960 -0.075570 
		CHANNELS 3 Zrotation Xrotation Yrotation
		JOINT LeftKnee
		{
			OFFSET 0.000000 -0.402270 0.000000 
			CHANNELS 1 Zrotation
			JOINT LeftAnkle
			{
				OFFSET 0.000000 -0.404085 0.000000 
				CHANNELS 3 Zrotation Xrotation Yrotation
				End Site
				{
					OFFSET 0.204105 -0.089430 -0.008415 
				}
			}
		}
	}
}
MOTION
Frames: 31
Frame Time: 0.02
-4e-05 -0.00047 0.00106 27.83962 -20.89691 -3.15914 46.3649 -0.53216 -7.82481 -10.83709 1.97464 -1.10872 -20.97351 -3.86427 -10.182 28.14968 94.70357 7.70527 1.75724 -26.04576 7.03346 1.48191 31.28613 -81.43487 7.93302 1.73135 28.63655 -2.87675 1.15869 -20.40207 -7.33348 -4.26693 -4.3714 33.25155 6.16858 5.55815 -24.35912 -6.42767 2.25239 3.34354
-0.00122 -0.00064 0.00103 27.76837 -21.04921 -3.17348 46.2389 -0.47284 -7.83822 -10.40662 2.1087 -1.1102 -20.83609 -4.00325 -10.23679 28.01787 94.6232 7.64201 1.74407 -25.82585 6.8333 2.34534 31.49868 -86.13979 9.45632 0.98064 28.86899 -3.05055 0.34123 -20.40471 -7.26628 -4.20509 -4.33552 33.47734 6.16519 5.63673 -24.37428 -6.42991 2.25406 3.3422
-0.00241 -0.00081 0.00101 27.69736 -21.20103 -3.18778 46.11327 -0.41371 -7.85163 -9.97755 2.24242 -1.11168 -20.69934 -4.14194 -10.29134 27.88682 94.54329 7.57901 1.73097 -25.60661 6.63415 3.20453 31.71115 -90.82397 10.97275 0.2332 29.10075 -3.22391 -0.47392 -20.40733 -7.19927 -4.14343 -4.29974 33.70248 6.16174 5.71498 -24.3894 -6.43214 2.25573 3.34087
-0.00359 -0.00098 0.00098 27.62634 -21.35286 -3.20207 45.98765 -0.35457 -7.86501 -9.54841 2.37609 -1.11315 -20.5624 -4.28054 -10.3459 27.75548 94.46294 7.51589 1.7178 -25.38739 6.43469 4.06501 31.92315 -95.51316 12.49093 -0.51501 29.33248 -3.3972 -1.28891 -20.40995 -7.13227 -4.08178 -4.26397 33.92759 6.15834 5.79331 -24.40452 -6.43437 2.2574 3.33953
-0.00477 -0.00115 0.00095 27.55506 -21.50516 -3.21639 45.86169 -0.29524 -7.87837 -9.1179 2.51005 -1.11463 -20.42468 -4.41934 -10.40085 27.62322 94.38277 7.45265 1.70466 -25.16749 6.23402 4.93044 32.13499 -100.22604 14.01702 -1.26692 29.56489 -3.5709 -2.10609 -20.41258 -7.06507 -4.01997 -4.2281 34.15333 6.15501 5.87197 -24.41966 -6.4366 2.25906 3.33818
-0.00595 -0.00132 0.00092 27.48463 -21.65596 -3.23066 45.73676 -0.23652 -7.89189 -8.69188 2.64327 -1.11611 -20.28996 -4.55775 -10.45463 27.49468 94.3038 7.39028 1.69172 -24.94964 6.03803 5.77654 32.34873 -104.85003 15.51319 -2.00498 29.79525 -3.74351 -2.91689 -20.4152 -6.99845 -3.95862 -4.19251 34.37717 6.15132 5.94935 -24.43474 -6.43882 2.26077 3.33688
-0.00713 -0.00149 0.0009 27.41258 -21.80962 -3.24502 45.60988 -0.17663 -7.90508 -8.25724 2.77785 -1.11758 -20.14941 -4.69691 -10.51034 27.35888 94.22063 7.32573 1.67809 -24.72795 5.83298 6.66022 32.55851 -109.64578 17.06722 -2.7698 30.0295 -3.91815 -3.73971 -20.41784 -6.93075 -3.8964 -4.1564 34.6046 6.14837 6.0293 -24.44993 -6.44107 2.26238 3.33549
-0.00831 -0.00166 0.00087 27.342 -21.96061 -3.25929 45.48481 -0.11783 -7.91854 -7.83063 2.91115 -1.11906 -20.01413 -4.83517 -10.56497 27.22963 94.14476 7.26411 1.66566 -24.50974 5.63604 7.50997 32.77177 -114.28679 18.56916 -3.5105 30.26012 -4.09089 -4.55134 -20.42046 -6.86405 -3.835 -4.12077 34.82868 6.14472 6.10673 -24.46502 -6.44329 2.2641 3.33419
-0.00949 -0.00182 0.00084 27.2733 -22.10855 -3.27347 45.36184 -0.06033 -7.93249 -7.41336 3.04307 -1.12056 -19.88572 -4.97325 -10.61551 27.10899 94.06421 7.20242 1.65242 -24.29591 5.44998 8.31543 32.99018 -118.72501 20.00264 -4.21965 30.48657 -4.26148 -5.35008 -20.42305 -6.7985 -3.7745 -4.08569 35.04897 6.14027 6.18166 -24.47998 -6.44549 2.26587 3.33296
-0.0107 -0.002 0.00083 27.19404 -22.2747 -3.28821 45.22646 0.00477 -7.94409 -6.94092 3.18346 -1.12198 -19.71904 -5.11515 -10.68125 26.94064 93.96969 7.13013 1.637 -24.05724 5.20424 9.36723 33.18166 -124.289 21.81562 -5.10412 30.7378 -4.44497 -6.22537 -20.42579 -6.72615 -3.70852 -4.04733 35.29199 6.1406 6.27274 -24.49567 -6.44784 2.26709 3.33118
-0.01182 -0.00216 0.00077 27.13687 -22.40197 -3.30176 45.11749 0.05376 -7.96034 -6.58583 3.30561 -1.12356 -19.63231 -5.24717 -10.72026 26.87175 93.93076 7.08725 1.63055 -23.87078 5.08251 9.90486 33.42814 -127.50437 22.83727 -5.62271 30.93622 -4.60087 -6.93753 -20.42821 -6.66827 -3.65428 -4.01597 35.48643 6.13071 6.32863 -24.50982 -6.44988 2.26963 3.33064
-0.01271 -0.0023 0.00056 27.14253 -22.42541 -3.31202 45.07968 0.0586 -7.99203 -6.54789 3.38042 -1.12561 -19.77375 -5.36698 -10.64029 27.08857 93.82581 7.0663 1.61215 -23.83099 5.31992 8.97258 33.84229 -123.99785 21.59063 -5.09533 30.99286 -4.68351 -7.21184 -20.42976 -6.64941 -3.63119 -4.00331 35.55142 6.09415 6.2973 -24.51973 -6.45091 2.27458 3.33296
-0.0135 -0.00244 0.00028 27.16996 -22.40929 -3.32112 45.06864 0.04725 -8.0279 -6.62865 3.43642 -1.12782 -19.99393 -5.47429 -10.54116 27.40305 93.81315 7.08461 1.60887 -23.84319 5.67817 7.53569 34.30869 -118.18821 19.56862 -4.20904 30.99589 -4.73805 -7.321 -20.43097 -6.64519 -3.62005 -3.99774 35.56693 6.0473 6.22982 -24.5281 -6.45165 2.281 3.33657
-0.01433 -0.00257 3e-05 27.18594 -22.40939 -3.3307 45.04622 0.04325 -8.06008 -6.65832 3.4992 -1.12994 -20.1722 -5.57739 -10.48158 27.66431 93.90614 7.12483 1.62336 -23.82914 5.96907 6.36726 34.7401 -113.60843 17.96298 -3.51351 31.02139 -4.80372 -7.49874 -20.43231 -6.6348 -3.60421 -3.98927 35.60256 6.00402 6.17162 -24.53719 -6.45265 2.28768 3.33999
-0.0152 -0.00272 -0.0002 27.20846 -22.41675 -3.34028 45.02055 0.03922 -8.09977 -6.67636 3.56928 -1.13215 -20.3761 -5.72153 -10.29497 27.96243 93.3929 7.00212 1.53651 -23.82548 6.31353 5.02949 35.21861 -108.23457 16.08023 -2.69761 31.05477 -4.87597 -7.70156 -20.43377 -6.62253 -3.58551 -3.97954 35.64806 5.96452 6.13974 -24.5462 -6.45318 2.29086 3.3419
-0.01595 -0.00284 -0.00048 27.2226 -22.39969 -3.34981 45.00799 0.03143 -8.12489 -6.74655 3.61984 -1.13421 -20.54579 -5.77807 -10.36438 28.20774 94.14329 7.22202 1.66097 -23.81349 6.57406 3.92871 35.61199 -103.98885 14.59759 -2.05101 31.05905 -4.92822 -7.81539 -20.43487 -6.61747 -3.57536 -3.974 35.66132 5.91581 6.0492 -24.555 -6.45455 2.30119 3.34704
-0.0164 -0.0029 -0.00084 27.20763 -22.32417 -3.35759 45.02529 0.01711 -8.10804 -6.9335 3.62013 -1.13583 -20.59743 -5.58944 -11.1776 28.27599 98.52958 8.42769 2.39202 -23.75749 6.58253 3.57177 35.7523 -103.24283 14.34988 -1.92717 30.99604 -4.92895 -7.70327 -20.43526 -6.63014 -3.58796 -3.97929 35.59704 5.8345 5.76404 -24.56353 -6.45894 2.33527 3.36294
-0.01673 -0.00293 -0.00125 27.18357 -22.22547 -3.36573 45.0549 -0.00045 -8.07648 -7.16875 3.60169 -1.13731 -20.61295 -5.31481 -12.24137 28.28914 104.14518 9.96574 3.32883 -23.69311 6.50144 3.47528 35.80611 -103.73422 14.53927 -1.99026 30.90554 -4.91108 -7.51077 -20.43527 -6.64931 -3.6084 -3.98838 35.50203 5.74591 5.4281 -24.57193 -6.46409 2.37575 3.38168
-0.01712 -0.00297 -0.00165 27.16407 -22.13798 -3.37495 45.07864 -0.01642 -8.05216 -7.38028 3.59241 -1.13886 -20.64749 -5.0831 -13.17161 28.33214 109.09666 11.32156 4.15555 -23.63767 6.45416 3.28458 35.90291 -103.79198 14.57266 -1.99186 30.82785 -4.90389 -7.36922 -20.43531 -6.6645 -3.62384 -3.99506 35.42163 5.66724 5.14357 -24.58041 -6.4685 2.41035 3.39767
-0.01749 -0.00302 -0.00201 27.14353 -22.04667 -3.37885 45.10414 -0.03333 -8.02578 -7.60218 3.57949 -1.14039 -20.67276 -4.83265 -14.19149 28.35786 114.52774 12.81786 5.05835 -23.56132 6.43674 2.98247 35.98594 -103.27349 14.41422 -1.89029 30.7474 -4.88652 -7.16282 -20.43591 -6.68438 -3.64557 -4.0048 35.3372 5.56107 4.74122 -24.58869 -6.47456 2.45727 3.41972
-0.01787 -0.00304 -0.00246 27.12272 -21.9578 -3.39398 45.12898 -0.049 -7.99997 -7.81399 3.57024 -1.14193 -20.70904 -4.60359 -15.07531 28.40569 119.21148 14.09063 5.84437 -23.52716 6.3386 2.97059 36.07654 -104.21937 14.75004 -2.04211 30.66629 -4.88604 -7.07228 -20.43529 -6.69603 -3.65613 -4.00908 35.25397 5.50962 4.56887 -24.59744 -6.47737 2.48039 3.42999
-0.01832 -0.00297 -0.00307 27.10332 -21.88554 -3.43949 45.14512 -0.05904 -7.98084 -7.97274 3.57317 -1.14355 -20.77245 -4.43161 -15.60291 28.52241 121.8766 14.74748 6.31938 -23.59965 6.00103 3.78936 36.20685 -109.44251 16.51682 -2.94247 30.59448 -4.9396 -7.343 -20.4311 -6.68159 -3.63199 -3.9963 35.186 5.61931 5.07753 -24.60696 -6.47087 2.43321 3.40541
-0.0188 -0.00286 -0.00377 27.08395 -21.81561 -3.49637 45.16076 -0.06793 -7.96244 -8.12208 3.58099 -1.14519 -20.84976 -4.28807 -15.97205 28.66316 123.69041 15.15438 6.65959 -23.71656 5.59136 4.87806 36.34723 -116.01648 18.74042 -4.07697 30.52193 -5.01063 -7.73066 -20.42576 -6.65884 -3.59657 -3.97802 35.11928 5.7828 5.81371 -24.61708 -6.46107 2.3624 3.36917
-0.01927 -0.00277 -0.00446 27.06439 -21.74243 -3.54845 45.17897 -0.07815 -7.9428 -8.28328 3.5883 -1.14681 -20.92858 -4.14723 -16.35816 28.79695 125.65618 15.61865 7.01908 -23.82101 5.23996 5.78268 36.48515 -121.62126 20.64166 -5.04227 30.44769 -5.07166 -8.05048 -20.42111 -6.64105 -3.56758 -3.96294 35.04993 5.9163 6.42352 -24.62727 -6.45288 2.3044 3.33936
-0.01972 -0.00267 -0.00505 27.04494 -21.67895 -3.59909 45.18765 -0.08495 -7.92674 -8.4122 3.58771 -1.14845 -20.97428 -3.93915 -16.97674 28.91489 128.62269 16.32326 7.55706 -23.89369 4.77999 6.94853 36.61401 -128.73339 23.03031 -6.2731 30.38293 -5.13985 -8.42631 -20.41568 -6.61872 -3.5336 -3.94516 34.99002 6.07299 7.12705 -24.63594 -6.44433 2.23795 3.30493
-0.02023 -0.00259 -0.00586 27.02578 -21.59451 -3.65529 45.216 -0.09872 -7.90325 -8.608 3.605 -1.15008 -21.09128 -3.87682 -17.08106 29.06881 129.3293 16.47442 7.69601 -24.04178 4.52748 7.63957 36.76167 -133.05397 24.52143 -7.01141 30.2962 -5.19864 -8.71821 -20.4117 -6.60349 -3.50695 -3.93149 34.90884 6.19416 7.69192 -24.648 -6.43562 2.1833 3.27723
-0.02093 -0.0026 -0.00717 27.0042 -21.46669 -3.72525 45.29721 -0.13043 -7.86229 -8.96663 3.67061 -1.15163 -21.41208 -4.22947 -15.70996 29.34612 123.6318 15.06355 6.70155 -24.39866 4.88968 6.87864 36.99247 -128.96342 23.29414 -6.26929 30.17133 -5.21749 -8.71563 -20.41155 -6.61238 -3.50584 -3.93193 34.78997 6.20486 7.80196 -24.66862 -6.42842 2.16808 3.27165
-0.02168 -0.00265 -0.00872 26.98356 -21.31559 -3.80024 45.39803 -0.16935 -7.81338 -9.3956 3.75426 -1.15323 -21.80085 -4.7247 -13.84342 29.65372 115.75415 13.12057 5.32148 -24.8273 5.4594 5.64251 37.23787 -122.08147 21.16973 -5.03451 30.02137 -5.22809 -8.6304 -20.41323 -6.62826 -3.51206 -3.93646 34.64673 6.17771 7.76752 -24.69282 -6.42097 2.16533 3.2731
-0.0224 -0.00269 -0.0102 26.96466 -21.16469 -3.87206 45.49141 -0.20618 -7.766 -9.80994 3.8295 -1.1548 -22.15383 -5.14224 -12.26375 29.92776 109.11043 11.48148 4.15887 -25.21628 5.91826 4.67274 37.45251 -116.71423 19.53791 -4.06551 29.86713 -5.24902 -8.60702 -20.41405 -6.63914 -3.51311 -3.93814 34.49963 6.16758 7.81065 -24.71572 -6.41286 2.15609 3.27083
-0.02318 -0.00269 -0.0115 26.93664 -21.05537 -3.94779 45.58037 -0.23852 -7.72714 -10.15719 3.90525 -1.15624 -22.53426 -5.61487 -10.41682 30.28517 101.40496 9.57093 2.81225 -25.63863 6.44307 3.50293 37.7615 -110.35135 17.56358 -2.92711 29.7749 -5.2431 -8.48901 -20.41394 -6.65709 -3.5212 -3.94365 34.41186 6.16062 7.81298 -24.737 -6.40787 2.14943 3.27033
-0.02384 -0.00278 -0.01323 26.92778 -20.85682 -4.01671 45.68092 -0.28124 -7.66899 -10.65297 3.98483 -1.15817 -22.8656 -6.00661 -9.01261 30.47712 95.41206 8.10378 1.76055 -26.00533 6.88244 2.62938 37.88711 -105.38706 16.08399 -2.02253 29.55274 -5.29052 -8.5421 -20.41746 -6.6625 -3.51692 -3.94244 34.19939 6.13672 7.86105 -24.76284 -6.39643 2.14077 3.26803
